{
    "asset" : {
        "generator" : "Khronos glTF Blender I/O v3.2.40",
        "version" : "2.0"
    },
    "scene" : 0,
    "scenes" : [
        {
            "name" : "Scene",
            "nodes" : [
                0
            ]
        }
    ],
    "nodes" : [
        {
            "mesh" : 0,
            "name" : "Cube.001",
            "translation" : [
                0,
                0.15431839227676392,
                0
            ]
        }
    ],
    "materials" : [
        {
            "doubleSided" : true,
            "name" : "Marble.002",
            "normalTexture" : {
                "index" : 0,
                "scale" : 0,
                "texCoord" : 1
            },
            "pbrMetallicRoughness" : {
                "baseColorTexture" : {
                    "index" : 1,
                    "texCoord" : 1
                },
                "metallicFactor" : 0,
                "metallicRoughnessTexture" : {
                    "index" : 2,
                    "texCoord" : 1
                }
            }
        }
    ],
    "meshes" : [
        {
            "name" : "Cube.004",
            "primitives" : [
                {
                    "attributes" : {
                        "POSITION" : 0,
                        "NORMAL" : 1,
                        "TEXCOORD_0" : 2,
                        "TEXCOORD_1" : 3
                    },
                    "indices" : 4,
                    "material" : 0
                }
            ]
        }
    ],
    "textures" : [
        {
            "sampler" : 0,
            "source" : 0
        },
        {
            "sampler" : 0,
            "source" : 1
        },
        {
            "sampler" : 0,
            "source" : 2
        }
    ],
    "images" : [
        {
            "mimeType" : "image/png",
            "name" : "marble_1_Normal.bmp",
            "uri" : "textures/marble_1_Normal_bmp.png"
        },
        {
            "mimeType" : "image/png",
            "name" : "marble_1_color.bmp",
            "uri" : "textures/marble_1_color_bmp.png"
        },
        {
            "mimeType" : "image/png",
            "name" : "marble_1_roughness.bmp",
            "uri" : "textures/marble_1_roughness_bmp.png"
        }
    ],
    "accessors" : [
        {
            "bufferView" : 0,
            "componentType" : 5126,
            "count" : 10990,
            "max" : [
                7.646927833557129,
                0.1356799155473709,
                2.7617855072021484
            ],
            "min" : [
                -7.646927833557129,
                -0.1512823849916458,
                -2.7617855072021484
            ],
            "type" : "VEC3"
        },
        {
            "bufferView" : 1,
            "componentType" : 5126,
            "count" : 10990,
            "type" : "VEC3"
        },
        {
            "bufferView" : 2,
            "componentType" : 5126,
            "count" : 10990,
            "type" : "VEC2"
        },
        {
            "bufferView" : 3,
            "componentType" : 5126,
            "count" : 10990,
            "type" : "VEC2"
        },
        {
            "bufferView" : 4,
            "componentType" : 5123,
            "count" : 12402,
            "type" : "SCALAR"
        }
    ],
    "bufferViews" : [
        {
            "buffer" : 0,
            "byteLength" : 131880,
            "byteOffset" : 0
        },
        {
            "buffer" : 0,
            "byteLength" : 131880,
            "byteOffset" : 131880
        },
        {
            "buffer" : 0,
            "byteLength" : 87920,
            "byteOffset" : 263760
        },
        {
            "buffer" : 0,
            "byteLength" : 87920,
            "byteOffset" : 351680
        },
        {
            "buffer" : 0,
            "byteLength" : 24804,
            "byteOffset" : 439600
        }
    ],
    "samplers" : [
        {
            "magFilter" : 9729,
            "minFilter" : 9987
        }
    ],
    "buffers" : [
        {
            "byteLength" : 464404,
            "uri" : "bottom.bin"
        }
    ]
}
