{
    "asset" : {
        "generator" : "Khronos glTF Blender I/O v3.2.40",
        "version" : "2.0"
    },
    "scene" : 0,
    "scenes" : [
        {
            "name" : "Scene",
            "nodes" : [
                0
            ]
        }
    ],
    "nodes" : [
        {
            "mesh" : 0,
            "name" : "Plane.001",
            "rotation" : [
                0.035546258091926575,
                0,
                0,
                0.9993680715560913
            ],
            "translation" : [
                0,
                0.506382167339325,
                0.0002863742411136627
            ]
        }
    ],
    "materials" : [
        {
            "doubleSided" : true,
            "name" : "Material.003",
            "pbrMetallicRoughness" : {
                "baseColorFactor" : [
                    0,
                    0,
                    0,
                    1
                ],
                "roughnessFactor" : 0.2090909481048584
            }
        }
    ],
    "meshes" : [
        {
            "name" : "Plane.018",
            "primitives" : [
                {
                    "attributes" : {
                        "POSITION" : 0,
                        "NORMAL" : 1,
                        "TEXCOORD_0" : 2
                    },
                    "indices" : 3,
                    "material" : 0
                }
            ]
        }
    ],
    "accessors" : [
        {
            "bufferView" : 0,
            "componentType" : 5126,
            "count" : 48364,
            "max" : [
                7.522369384765625,
                0,
                2.5477983951568604
            ],
            "min" : [
                -7.522369384765625,
                -0.18569234013557434,
                -2.5477983951568604
            ],
            "type" : "VEC3"
        },
        {
            "bufferView" : 1,
            "componentType" : 5126,
            "count" : 48364,
            "type" : "VEC3"
        },
        {
            "bufferView" : 2,
            "componentType" : 5126,
            "count" : 48364,
            "type" : "VEC2"
        },
        {
            "bufferView" : 3,
            "componentType" : 5123,
            "count" : 82920,
            "type" : "SCALAR"
        }
    ],
    "bufferViews" : [
        {
            "buffer" : 0,
            "byteLength" : 580368,
            "byteOffset" : 0
        },
        {
            "buffer" : 0,
            "byteLength" : 580368,
            "byteOffset" : 580368
        },
        {
            "buffer" : 0,
            "byteLength" : 386912,
            "byteOffset" : 1160736
        },
        {
            "buffer" : 0,
            "byteLength" : 165840,
            "byteOffset" : 1547648
        }
    ],
    "buffers" : [
        {
            "byteLength" : 1713488,
            "uri" : "plate.bin"
        }
    ]
}
