{
    "asset" : {
        "generator" : "Khronos glTF Blender I/O v3.2.43",
        "version" : "2.0"
    },
    "scene" : 0,
    "scenes" : [
        {
            "name" : "Scene",
            "nodes" : [
                0
            ]
        }
    ],
    "nodes" : [
        {
            "mesh" : 0,
            "name" : "Plane",
            "translation" : [
                0,
                0.2863059639930725,
                0
            ]
        }
    ],
    "materials" : [
        {
            "doubleSided" : true,
            "name" : "White Powder Coating Texture",
            "normalTexture" : {
                "index" : 0,
                "scale" : 0.10000000149011612,
                "texCoord" : 2
            },
            "pbrMetallicRoughness" : {
                "baseColorFactor" : [
                    0.5112244486808777,
                    0.47385525703430176,
                    0.5016862750053406,
                    1
                ],
                "metallicFactor" : 0,
                "roughnessFactor" : 0
            }
        }
    ],
    "meshes" : [
        {
            "name" : "Plane",
            "primitives" : [
                {
                    "attributes" : {
                        "POSITION" : 0,
                        "NORMAL" : 1,
                        "TEXCOORD_0" : 2,
                        "TEXCOORD_1" : 3,
                        "TEXCOORD_2" : 4
                    },
                    "indices" : 5,
                    "material" : 0
                }
            ]
        }
    ],
    "textures" : [
        {
            "sampler" : 0,
            "source" : 0
        }
    ],
    "images" : [
        {
            "mimeType" : "image/png",
            "name" : "Normal",
            "uri" : "textures/Normal.png"
        }
    ],
    "accessors" : [
        {
            "bufferView" : 0,
            "componentType" : 5126,
            "count" : 13131,
            "max" : [
                7.850869655609131,
                0.6807299256324768,
                2.8307383060455322
            ],
            "min" : [
                -7.850869655609131,
                0,
                -2.8871910572052
            ],
            "type" : "VEC3"
        },
        {
            "bufferView" : 1,
            "componentType" : 5126,
            "count" : 13131,
            "type" : "VEC3"
        },
        {
            "bufferView" : 2,
            "componentType" : 5126,
            "count" : 13131,
            "type" : "VEC2"
        },
        {
            "bufferView" : 3,
            "componentType" : 5126,
            "count" : 13131,
            "type" : "VEC2"
        },
        {
            "bufferView" : 4,
            "componentType" : 5126,
            "count" : 13131,
            "type" : "VEC2"
        },
        {
            "bufferView" : 5,
            "componentType" : 5123,
            "count" : 16536,
            "type" : "SCALAR"
        }
    ],
    "bufferViews" : [
        {
            "buffer" : 0,
            "byteLength" : 157572,
            "byteOffset" : 0
        },
        {
            "buffer" : 0,
            "byteLength" : 157572,
            "byteOffset" : 157572
        },
        {
            "buffer" : 0,
            "byteLength" : 105048,
            "byteOffset" : 315144
        },
        {
            "buffer" : 0,
            "byteLength" : 105048,
            "byteOffset" : 420192
        },
        {
            "buffer" : 0,
            "byteLength" : 105048,
            "byteOffset" : 525240
        },
        {
            "buffer" : 0,
            "byteLength" : 33072,
            "byteOffset" : 630288
        }
    ],
    "samplers" : [
        {
            "magFilter" : 9729,
            "minFilter" : 9987
        }
    ],
    "buffers" : [
        {
            "byteLength" : 663360,
            "uri" : "top.bin"
        }
    ]
}
