{
    "asset" : {
        "generator" : "Khronos glTF Blender I/O v3.2.40",
        "version" : "2.0"
    },
    "scene" : 0,
    "scenes" : [
        {
            "name" : "Scene",
            "nodes" : [
                0
            ]
        }
    ],
    "nodes" : [
        {
            "mesh" : 0,
            "name" : "Plane",
            "translation" : [
                0,
                0.2863059639930725,
                0
            ]
        }
    ],
    "materials" : [
        {
            "doubleSided" : true,
            "name" : "Marble.002",
            "normalTexture" : {
                "index" : 0,
                "scale" : 0,
                "texCoord" : 1
            },
            "pbrMetallicRoughness" : {
                "baseColorTexture" : {
                    "index" : 1,
                    "texCoord" : 1
                },
                "metallicFactor" : 0,
                "metallicRoughnessTexture" : {
                    "index" : 2,
                    "texCoord" : 1
                }
            }
        }
    ],
    "meshes" : [
        {
            "name" : "Plane",
            "primitives" : [
                {
                    "attributes" : {
                        "POSITION" : 0,
                        "NORMAL" : 1,
                        "TEXCOORD_0" : 2,
                        "TEXCOORD_1" : 3
                    },
                    "indices" : 4,
                    "material" : 0
                }
            ]
        }
    ],
    "textures" : [
        {
            "sampler" : 0,
            "source" : 0
        },
        {
            "sampler" : 0,
            "source" : 1
        },
        {
            "sampler" : 0,
            "source" : 2
        }
    ],
    "images" : [
        {
            "mimeType" : "image/png",
            "name" : "marble_1_Normal.bmp",
            "uri" : "textures/marble_1_Normal_bmp.png"
        },
        {
            "mimeType" : "image/png",
            "name" : "marble_1_color.bmp",
            "uri" : "textures/marble_1_color_bmp.png"
        },
        {
            "mimeType" : "image/png",
            "name" : "marble_1_roughness.bmp",
            "uri" : "textures/marble_1_roughness_bmp.png"
        }
    ],
    "accessors" : [
        {
            "bufferView" : 0,
            "componentType" : 5126,
            "count" : 8194,
            "max" : [
                7.850869655609131,
                0.6807299256324768,
                2.8307383060455322
            ],
            "min" : [
                -7.850869655609131,
                0,
                -2.8871910572052
            ],
            "type" : "VEC3"
        },
        {
            "bufferView" : 1,
            "componentType" : 5126,
            "count" : 8194,
            "type" : "VEC3"
        },
        {
            "bufferView" : 2,
            "componentType" : 5126,
            "count" : 8194,
            "type" : "VEC2"
        },
        {
            "bufferView" : 3,
            "componentType" : 5126,
            "count" : 8194,
            "type" : "VEC2"
        },
        {
            "bufferView" : 4,
            "componentType" : 5123,
            "count" : 16536,
            "type" : "SCALAR"
        }
    ],
    "bufferViews" : [
        {
            "buffer" : 0,
            "byteLength" : 98328,
            "byteOffset" : 0
        },
        {
            "buffer" : 0,
            "byteLength" : 98328,
            "byteOffset" : 98328
        },
        {
            "buffer" : 0,
            "byteLength" : 65552,
            "byteOffset" : 196656
        },
        {
            "buffer" : 0,
            "byteLength" : 65552,
            "byteOffset" : 262208
        },
        {
            "buffer" : 0,
            "byteLength" : 33072,
            "byteOffset" : 327760
        }
    ],
    "samplers" : [
        {
            "magFilter" : 9729,
            "minFilter" : 9987
        }
    ],
    "buffers" : [
        {
            "byteLength" : 360832,
            "uri" : "top.bin"
        }
    ]
}
